<?xml version="1.0" encoding="UTF-8"?>
<svg id="Layer_2" data-name="Layer 2" xmlns="http://www.w3.org/2000/svg" xmlns:xlink="http://www.w3.org/1999/xlink" viewBox="0 0 176.93 137.15">
  <defs>
    <style>
      .cls-1 {
        clip-path: url(#clippath-11);
      }

      .cls-2 {
        fill: url(#radial-gradient-8);
      }

      .cls-2, .cls-3, .cls-4, .cls-5, .cls-6, .cls-7, .cls-8, .cls-9, .cls-10, .cls-11, .cls-12, .cls-13, .cls-14, .cls-15, .cls-16, .cls-17, .cls-18, .cls-19, .cls-20, .cls-21, .cls-22, .cls-23, .cls-24, .cls-25, .cls-26 {
        stroke-width: 0px;
      }

      .cls-27 {
        clip-path: url(#clippath-2);
      }

      .cls-3 {
        fill: #e92e2e;
      }

      .cls-4 {
        fill: #00adec;
      }

      .cls-5 {
        fill: #008774;
      }

      .cls-6 {
        fill: #863e97;
      }

      .cls-7 {
        fill: #85c443;
      }

      .cls-28 {
        clip-path: url(#clippath-6);
      }

      .cls-8 {
        fill: url(#radial-gradient-13);
      }

      .cls-9 {
        fill: url(#radial-gradient-12);
      }

      .cls-10 {
        fill: #ef8831;
      }

      .cls-11 {
        fill: none;
      }

      .cls-12 {
        fill: #f7c324;
      }

      .cls-13 {
        fill: #aed142;
      }

      .cls-29 {
        clip-path: url(#clippath-7);
      }

      .cls-30 {
        clip-path: url(#clippath-1);
      }

      .cls-31 {
        clip-path: url(#clippath-4);
      }

      .cls-32 {
        clip-path: url(#clippath-12);
      }

      .cls-14 {
        fill: url(#radial-gradient-2);
      }

      .cls-15 {
        fill: #00b3e5;
      }

      .cls-16 {
        fill: url(#radial-gradient-7);
      }

      .cls-17 {
        fill: #231f20;
      }

      .cls-33 {
        clip-path: url(#clippath-9);
      }

      .cls-34 {
        clip-path: url(#clippath);
      }

      .cls-18 {
        fill: url(#radial-gradient-5);
      }

      .cls-19 {
        fill: url(#radial-gradient);
      }

      .cls-35 {
        clip-path: url(#clippath-3);
      }

      .cls-36 {
        clip-path: url(#clippath-8);
      }

      .cls-20 {
        fill: url(#radial-gradient-10);
      }

      .cls-37 {
        clip-path: url(#clippath-5);
      }

      .cls-21 {
        fill: url(#radial-gradient-6);
      }

      .cls-22 {
        fill: url(#radial-gradient-9);
      }

      .cls-23 {
        fill: url(#radial-gradient-3);
      }

      .cls-38 {
        clip-path: url(#clippath-10);
      }

      .cls-24 {
        fill: url(#radial-gradient-11);
      }

      .cls-25 {
        fill: #00ab4f;
      }

      .cls-26 {
        fill: url(#radial-gradient-4);
      }
    </style>
    <clipPath id="clippath">
      <polygon class="cls-11" points="102.38 78.32 93.17 94.28 93.2 94.28 102.41 78.32 102.38 78.32"/>
    </clipPath>
    <radialGradient id="radial-gradient" cx="1006.19" cy="736.27" fx="1006.19" fy="736.27" r="1" gradientTransform="translate(-89166.96 65284.26) scale(88.66 -88.66)" gradientUnits="userSpaceOnUse">
      <stop offset="0" stop-color="#88919a"/>
      <stop offset=".12" stop-color="#848c95"/>
      <stop offset=".25" stop-color="#787f87"/>
      <stop offset=".39" stop-color="#666a71"/>
      <stop offset=".54" stop-color="#4c4d51"/>
      <stop offset=".69" stop-color="#2a2729"/>
      <stop offset=".72" stop-color="#231f20"/>
      <stop offset="1" stop-color="#231f20"/>
    </radialGradient>
    <clipPath id="clippath-1">
      <path class="cls-11" d="M129.15,78.17l.07.12v.02s7.26,12.6,7.26,12.6c0,0,.01,0,.02,0l-7.34-12.75v.02Z"/>
    </clipPath>
    <radialGradient id="radial-gradient-2" cx="1006.19" cy="736.27" fx="1006.19" fy="736.27" r="1" gradientTransform="translate(-89166.9 65284.22) scale(88.66 -88.66)" xlink:href="#radial-gradient"/>
    <clipPath id="clippath-2">
      <polygon class="cls-11" points="102.52 78.31 111.69 94.18 111.77 94.18 102.62 78.32 102.55 78.32 102.54 78.29 102.52 78.31"/>
    </clipPath>
    <radialGradient id="radial-gradient-3" cx="1006.19" cy="736.27" fx="1006.19" fy="736.27" r="1" gradientTransform="translate(-89166.55 65283.97) scale(88.66 -88.66)" xlink:href="#radial-gradient"/>
    <clipPath id="clippath-3">
      <rect class="cls-11" x="20.27" y="70.21" width="0" height="8.45" transform="translate(-34.51 20.12) rotate(-30.01)"/>
    </clipPath>
    <radialGradient id="radial-gradient-4" cx="1006.19" cy="736.27" fx="1006.19" fy="736.27" gradientTransform="translate(-89167.15 65284.4) scale(88.66 -88.66)" xlink:href="#radial-gradient"/>
    <clipPath id="clippath-4">
      <path class="cls-11" d="M148.46,78h3.32s0-.02.02-.03l-3.34.03Z"/>
    </clipPath>
    <radialGradient id="radial-gradient-5" cx="1006.19" cy="736.27" fx="1006.19" fy="736.27" r="1" gradientTransform="translate(-89175.01 65290.04) scale(88.67 -88.67)" xlink:href="#radial-gradient"/>
    <clipPath id="clippath-5">
      <polygon class="cls-11" points="22.39 78.1 22.4 78.12 18.16 78.12 18.16 78.21 22.37 78.21 22.38 78.24 22.4 78.21 40.3 78.21 40.3 78.1 22.39 78.1"/>
    </clipPath>
    <radialGradient id="radial-gradient-6" cx="1006.19" cy="736.27" fx="1006.19" fy="736.27" gradientTransform="translate(-89173.96 65289.3) scale(88.67 -88.67)" xlink:href="#radial-gradient"/>
    <clipPath id="clippath-6">
      <rect class="cls-11" x="62.3" y="55.05" width="0" height=".65"/>
    </clipPath>
    <radialGradient id="radial-gradient-7" cx="1006.19" cy="736.27" fx="1006.19" fy="736.27" r="1" gradientTransform="translate(-89168.35 65285.26) scale(88.66 -88.66)" xlink:href="#radial-gradient"/>
    <clipPath id="clippath-7">
      <polygon class="cls-11" points="105.13 73.74 102.58 78.15 102.62 78.15 105.16 73.74 105.13 73.74"/>
    </clipPath>
    <radialGradient id="radial-gradient-8" cx="1006.19" cy="736.27" fx="1006.19" fy="736.27" r="1" gradientTransform="translate(-89166.24 65283.75) scale(88.66 -88.66)" xlink:href="#radial-gradient"/>
    <clipPath id="clippath-8">
      <polygon class="cls-11" points="18.16 85.55 18.16 85.61 22.38 78.3 31.61 94.28 31.65 94.28 22.38 78.24 18.16 85.55"/>
    </clipPath>
    <radialGradient id="radial-gradient-9" cx="1006.19" cy="736.27" fx="1006.19" fy="736.27" r="1" gradientTransform="translate(-89166.85 65284.19) scale(88.66 -88.66)" xlink:href="#radial-gradient"/>
    <clipPath id="clippath-9">
      <path class="cls-11" d="M78.4,0l.04.09h-7.15v31.85h4.51l-13.32,23.07-11.1-19.22h-.09l11.14,19.29h.05,0s1.15.01,1.15.01l7.68-15.06v15.06h17.82l-13.32,23.06h0s-4.51,7.81-4.51,7.81v.25l4.57-7.91h0s.03-.06.03-.06l-.05-.08h.1l13.26-22.96,13.26,22.96h.03v.02s.05.12.05.12l.03-.05-.02-.03v.02s-13.35-23.1-13.35-23.1h.05l-.02-.03,10.28-17.8h-6.08v-16.86h22.07c7.53-.04,12.96,2.78,16.28,8.44l11.66-20.2h0s.39-.01.39-.01c-6.3-4.86-14.56-7.75-24.78-8.67h-40.64Z"/>
    </clipPath>
    <radialGradient id="radial-gradient-10" cx="1006.19" cy="736.27" fx="1006.19" fy="736.27" gradientTransform="translate(-89166.67 65284.06) scale(88.66 -88.66)" xlink:href="#radial-gradient"/>
    <clipPath id="clippath-10">
      <path class="cls-11" d="M156.76,31.73h0s-.03.07-.03.07l1.11,1.92c-.02-.09-.03-.17-.05-.26l-.99-1.71h.64c-.06-.29-.13-.58-.19-.87l-.49.86Z"/>
    </clipPath>
    <radialGradient id="radial-gradient-11" cx="1006.19" cy="736.27" fx="1006.19" fy="736.27" gradientTransform="translate(-89166.9 65284.22) scale(88.66 -88.66)" xlink:href="#radial-gradient"/>
    <clipPath id="clippath-11">
      <polygon class="cls-11" points="18.16 .09 18.16 8.88 35.74 8.88 22.42 31.93 22.43 31.94 22.41 31.99 35.72 55.04 35.71 55.05 40.3 62.99 40.3 62.88 35.79 55.08 35.78 55.08 46.92 35.79 46.9 35.79 35.79 55.01 22.47 31.94 40.3 31.94 40.3 .09 18.16 .09"/>
    </clipPath>
    <radialGradient id="radial-gradient-12" cx="1006.19" cy="736.27" fx="1006.19" fy="736.27" r="1" gradientTransform="translate(-89166.69 65284.07) scale(88.66 -88.66)" xlink:href="#radial-gradient"/>
    <clipPath id="clippath-12">
      <path class="cls-11" d="M135.69,46.81c-.05,13.84-3.36,22.34-9.92,25.51l3.37,5.83h.02l14.18-23.28,10.81,18.72s0-.02.01-.03l-10.83-18.76h.01l.05-.09-8.06-13.96c.22,1.89.34,3.9.36,6.05"/>
    </clipPath>
    <radialGradient id="radial-gradient-13" cx="1006.19" cy="736.27" fx="1006.19" fy="736.27" r="1" gradientTransform="translate(-89166.69 65284.07) scale(88.66 -88.66)" xlink:href="#radial-gradient"/>
  </defs>
  <g id="Layer_1-2" data-name="Layer 1">
    <g>
      <g>
        <path class="cls-17" d="M11.08,123.93v1.87c-.58-.55-1.11-.94-1.61-1.19-.81-.4-1.64-.61-2.49-.61-.97,0-1.87.26-2.72.77-.93.55-1.63,1.31-2.12,2.28-.41.81-.61,1.67-.61,2.59,0,1.68.62,3.05,1.86,4.12,1.08.94,2.29,1.41,3.61,1.41.75,0,1.46-.14,2.12-.43.66-.29,1.31-.74,1.97-1.35v1.88c-1.28.88-2.64,1.32-4.07,1.32-1.14,0-2.22-.27-3.24-.81-1.3-.69-2.29-1.67-2.97-2.95-.53-1-.79-2.07-.79-3.2s.28-2.26.84-3.3c.64-1.2,1.54-2.13,2.71-2.79,1.09-.63,2.27-.94,3.54-.94.75,0,1.43.11,2.05.31.62.21,1.27.55,1.95,1.02"/>
        <path class="cls-17" d="M31.59,130.29l4.3,6.06h-1.84l-4.08-5.94h-.39v5.94h-1.52v-13.53h2.19c.77,0,1.41.06,1.91.17.5.11.94.3,1.33.57.49.33.86.77,1.12,1.33.25.54.38,1.12.38,1.73,0,1.02-.31,1.87-.93,2.54-.62.67-1.44,1.05-2.47,1.14M29.58,129.08h.94c.92,0,1.62-.18,2.1-.54.59-.45.88-1.09.88-1.92,0-.89-.33-1.54-.98-1.95-.47-.29-1.15-.44-2.04-.44h-.9v4.86Z"/>
        <polygon class="cls-17" points="59.48 124.22 53.99 124.22 53.99 128.24 59.33 128.24 59.33 129.65 53.99 129.65 53.99 134.94 59.48 134.94 59.48 136.35 52.47 136.35 52.47 122.82 59.48 122.82 59.48 124.22"/>
        <path class="cls-17" d="M83.91,132.52h-5.78l-1.63,3.83h-1.65l6.23-14.17,6.07,14.17h-1.65l-1.6-3.83ZM83.31,131.11l-2.26-5.42-2.31,5.42h4.57Z"/>
        <polygon class="cls-17" points="105.69 124.22 105.69 136.35 104.17 136.35 104.17 124.22 100.9 124.22 100.9 122.82 108.98 122.82 108.98 124.22 105.69 124.22"/>
        <rect class="cls-17" x="125.22" y="122.82" width="1.52" height="13.53"/>
        <polygon class="cls-17" points="144.5 122.82 148.35 133.13 152.18 122.82 153.83 122.82 148.33 137.15 142.85 122.82 144.5 122.82"/>
        <polygon class="cls-17" points="176.93 124.22 171.44 124.22 171.44 128.24 176.78 128.24 176.78 129.65 171.44 129.65 171.44 134.94 176.93 134.94 176.93 136.35 169.92 136.35 169.92 122.82 176.93 122.82 176.93 124.22"/>
      </g>
      <g class="cls-34">
        <rect class="cls-19" x="93.17" y="78.33" width="9.24" height="15.95"/>
      </g>
      <g class="cls-30">
        <rect class="cls-14" x="129.15" y="78.15" width="7.35" height="12.76"/>
      </g>
      <g class="cls-27">
        <rect class="cls-23" x="102.52" y="78.29" width="9.25" height="15.89"/>
      </g>
      <g class="cls-35">
        <rect class="cls-26" x="18.16" y="70.77" width="4.23" height="7.33"/>
      </g>
      <g class="cls-31">
        <rect class="cls-18" x="148.46" y="77.98" width="3.34" height=".03"/>
      </g>
      <g class="cls-37">
        <rect class="cls-21" x="18.16" y="78.1" width="22.14" height=".14"/>
      </g>
      <g class="cls-28">
        <rect class="cls-16" x="62.14" y="55.09" width=".33" height=".57"/>
      </g>
      <g class="cls-29">
        <rect class="cls-2" x="102.58" y="73.75" width="2.58" height="4.41"/>
      </g>
      <g class="cls-36">
        <rect class="cls-22" x="18.16" y="78.24" width="13.48" height="16.04"/>
      </g>
      <g class="cls-33">
        <rect class="cls-20" x="51.29" y="0" width="92.54" height="86.21"/>
      </g>
      <g class="cls-38">
        <rect class="cls-24" x="156.74" y="30.87" width="1.11" height="2.84"/>
      </g>
      <g class="cls-1">
        <rect class="cls-9" x="18.16" y=".09" width="28.76" height="62.89"/>
      </g>
      <g class="cls-32">
        <rect class="cls-8" x="125.77" y="40.76" width="28.39" height="37.39"/>
      </g>
      <polygon class="cls-15" points="39.8 94.28 40.3 94.28 40.3 93.42 39.8 94.28"/>
      <polygon class="cls-10" points="18.16 85.61 18.16 94.28 31.61 94.28 22.38 78.3 18.16 85.61"/>
      <polygon class="cls-12" points="22.37 78.21 18.16 78.21 18.16 85.55 22.38 78.24 22.37 78.21"/>
      <polygon class="cls-3" points="22.38 78.24 31.65 94.28 39.8 94.28 40.3 93.42 40.3 78.21 22.4 78.21 22.38 78.24"/>
      <polygon class="cls-4" points="35.79 55.08 62.43 55.08 51.29 35.79 46.92 35.79 35.78 55.08 35.79 55.08"/>
      <polygon class="cls-15" points="35.79 55.01 46.9 35.79 40.3 35.79 40.3 31.94 22.47 31.94 35.79 55.01"/>
      <polygon class="cls-15" points="75.8 31.94 71.29 31.94 71.29 35.79 51.37 35.79 62.47 55.01 75.8 31.94"/>
      <polygon class="cls-25" points="22.42 31.94 22.43 31.94 22.42 31.93 22.42 31.94"/>
      <polygon class="cls-25" points="18.16 24.58 18.16 31.94 22.42 31.94 18.16 24.58"/>
      <polygon class="cls-7" points="22.41 31.99 22.43 31.94 22.42 31.94 18.16 31.94 18.16 39.3 22.4 31.97 22.41 31.99"/>
      <polygon class="cls-5" points="22.42 31.93 35.74 8.88 18.16 8.88 18.16 24.58 22.42 31.94 22.42 31.93"/>
      <polygon class="cls-6" points="62.46 55.09 62.47 55.09 62.47 55.08 62.43 55.08 35.79 55.08 40.3 62.88 40.3 55.66 62.14 55.66 62.47 55.09 62.46 55.09"/>
      <polygon class="cls-4" points="102.52 78.32 102.41 78.32 93.2 94.28 93.43 94.28 93.43 94.18 111.69 94.18 102.52 78.31 102.52 78.32"/>
      <polygon class="cls-15" points="75.84 78.15 75.89 78.24 75.93 78.15 75.84 78.15"/>
      <polygon class="cls-15" points="76.04 78.32 85.25 94.28 93.17 94.28 102.38 78.32 76.04 78.32"/>
      <polygon class="cls-15" points="102.46 78.15 102.47 78.18 102.48 78.15 102.46 78.15"/>
      <polygon class="cls-15" points="102.62 78.32 111.77 94.18 119.89 94.18 129.05 78.32 102.62 78.32"/>
      <polygon class="cls-15" points="129.14 78.15 129.15 78.18 129.16 78.15 129.14 78.15"/>
      <polygon class="cls-15" points="102.58 78.15 102.55 78.21 102.57 78.24 102.62 78.15 102.58 78.15"/>
      <polygon class="cls-25" points="62.14 55.66 62.8 55.66 62.47 55.1 62.14 55.66"/>
      <polygon class="cls-25" points="75.78 78.15 75.8 78.15 75.79 78.14 75.78 78.15"/>
      <polygon class="cls-25" points="71.29 70.37 71.29 78.15 75.78 78.15 71.29 70.37"/>
      <polygon class="cls-25" points="75.87 78.32 75.86 78.3 71.29 86.21 71.29 94.28 85.25 94.28 76.04 78.32 75.87 78.32"/>
      <polygon class="cls-7" points="75.79 78.15 71.29 78.15 71.29 85.96 75.8 78.15 75.79 78.15"/>
      <polygon class="cls-5" points="62.47 55.09 62.46 55.09 62.47 55.09 62.47 55.1 62.79 55.66 63.32 55.66 63.61 55.09 62.47 55.09"/>
      <polygon class="cls-5" points="75.79 78.14 89.11 55.09 71.29 55.09 71.29 70.37 75.78 78.15 75.79 78.14"/>
      <g>
        <path class="cls-12" d="M129.16,78.15l7.34,12.75c6.51-2.73,11.6-7.03,15.29-12.9h-3.32l-19.3.15Z"/>
        <path class="cls-15" d="M157.8,33.45c-.11-.58-.23-1.15-.35-1.71h-.64l.99,1.71Z"/>
        <path class="cls-25" d="M156.67,31.74h.09l-13.32-23.06-11.66,20.2c.52.88.99,1.84,1.4,2.86h23.49Z"/>
        <polygon class="cls-25" points="156.76 31.73 156.76 31.74 156.77 31.74 156.76 31.73"/>
        <path class="cls-7" d="M135.33,40.76l8.06,13.96,13.27-22.98h-23.49c1.04,2.57,1.76,5.58,2.15,9.02"/>
        <polygon class="cls-7" points="156.74 31.79 156.77 31.74 156.76 31.74 156.7 31.74 156.74 31.79"/>
        <path class="cls-5" d="M143.43,8.67h0s13.32,23.07,13.32,23.07h0s.49-.87.49-.87c-2.26-9.63-6.74-17.03-13.43-22.2h-.39Z"/>
        <path class="cls-4" d="M143.34,54.81h-.01l10.83,18.76c2.4-5.26,3.9-11.51,4.5-18.76h-15.32Z"/>
        <path class="cls-15" d="M129.16,78.15l19.3-.15,3.34-.03c.86-1.38,1.65-2.84,2.35-4.39l-10.81-18.72-14.18,23.28Z"/>
        <path class="cls-6" d="M156.7,31.74h-.04l-13.27,22.98-.05.09h15.32c.21-2.46.31-5.03.31-7.71-.01-4.83-.39-9.29-1.13-13.38l-1.11-1.92-.03-.06Z"/>
        <polygon class="cls-10" points="105.13 73.74 101.24 73.74 101.24 55.13 89.25 55.13 89.2 55.13 102.54 78.23 102.55 78.21 102.58 78.15 105.13 73.74"/>
        <polygon class="cls-12" points="76.04 78.32 102.38 78.32 102.41 78.32 102.52 78.32 102.52 78.31 102.54 78.29 102.47 78.18 102.46 78.15 89.2 55.19 75.93 78.15 75.89 78.24 75.85 78.29 75.86 78.3 75.87 78.32 76.04 78.32"/>
        <polygon class="cls-12" points="101.25 37.3 99.51 37.3 89.23 55.1 89.25 55.13 101.25 55.13 101.25 37.3"/>
        <path class="cls-3" d="M102.62,78.32h26.43l.08-.14.08.13v-.02s-.06-.12-.06-.12v-.02s-3.38-5.83-3.38-5.83c-1.95.95-4.19,1.42-6.73,1.42h-13.88l-2.55,4.41-.05.09-.03.05.02.03h.06Z"/>
        <path class="cls-7" d="M129.13,78.18l-.08.14-9.16,15.86h2.78c5.15-.48,9.75-1.57,13.81-3.27l-7.28-12.6-.08-.13Z"/>
        <polygon class="cls-6" points="22.39 78.11 22.39 78.11 22.39 78.1 18.16 70.78 18.16 78.12 22.4 78.12 22.39 78.11"/>
        <polygon class="cls-25" points="35.71 55.05 35.72 55.04 35.71 55.04 35.71 55.05"/>
        <polygon class="cls-25" points="35.71 55.04 18.16 55.04 18.16 70.77 22.39 78.09 35.71 55.04"/>
        <polygon class="cls-13" points="35.72 55.04 22.41 31.98 22.4 31.97 18.16 39.3 18.16 55.04 35.71 55.04 35.72 55.04"/>
        <polygon class="cls-5" points="35.71 55.04 22.39 78.09 22.39 78.1 22.39 78.1 22.39 78.1 40.3 78.1 40.3 62.99 35.71 55.05 35.71 55.04"/>
      </g>
    </g>
  </g>
</svg>